<mxfile host="app.diagrams.net" agent="Mozilla/5.0 (Macintosh; Intel Mac OS X 10_15_7) AppleWebKit/605.1.15 (KHTML, like Gecko) Version/18.2 Safari/605.1.15" version="26.0.7">
  <diagram name="Page-1" id="58cdce13-f638-feb5-8d6f-7d28b1aa9fa0">
    <mxGraphModel dx="2414" dy="873" grid="1" gridSize="10" guides="1" tooltips="1" connect="1" arrows="1" fold="1" page="1" pageScale="1" pageWidth="1100" pageHeight="850" background="none" math="0" shadow="0">
      <root>
        <mxCell id="0" />
        <mxCell id="1" parent="0" />
        <mxCell id="2a3bc250acf0617d-8" value="Praćenje treninga" style="shape=umlFrame;whiteSpace=wrap;html=1;rounded=1;shadow=0;comic=0;labelBackgroundColor=none;strokeWidth=1;fontFamily=Verdana;fontSize=12;align=center;" parent="1" vertex="1">
          <mxGeometry x="-40" y="35" width="1070" height="765" as="geometry" />
        </mxCell>
        <mxCell id="d1TRP7UcQInOwhF4ZrHE-3" style="edgeStyle=orthogonalEdgeStyle;rounded=0;orthogonalLoop=1;jettySize=auto;html=1;entryX=0;entryY=0.5;entryDx=0;entryDy=0;strokeColor=#FF6666;endArrow=open;endFill=0;" edge="1" parent="1" source="382b91b5511bd0f7-1" target="d1TRP7UcQInOwhF4ZrHE-1">
          <mxGeometry relative="1" as="geometry">
            <Array as="points">
              <mxPoint x="5" y="520" />
            </Array>
          </mxGeometry>
        </mxCell>
        <mxCell id="382b91b5511bd0f7-1" value="" style="ellipse;html=1;shape=startState;fillColor=#000000;strokeColor=#ff0000;rounded=1;shadow=0;comic=0;labelBackgroundColor=none;fontFamily=Verdana;fontSize=12;fontColor=#000000;align=center;direction=south;" parent="1" vertex="1">
          <mxGeometry x="-10" y="135" width="30" height="30" as="geometry" />
        </mxCell>
        <mxCell id="V_hkI2GQ4vbb77GgvJAb-1" style="edgeStyle=orthogonalEdgeStyle;rounded=0;orthogonalLoop=1;jettySize=auto;html=1;" parent="1" source="382b91b5511bd0f7-6" edge="1">
          <mxGeometry relative="1" as="geometry">
            <mxPoint x="300" y="150" as="targetPoint" />
          </mxGeometry>
        </mxCell>
        <mxCell id="382b91b5511bd0f7-6" value="Popis treninga" style="rounded=1;whiteSpace=wrap;html=1;arcSize=24;fillColor=#ffffc0;strokeColor=#ff0000;shadow=0;comic=0;labelBackgroundColor=none;fontFamily=Verdana;fontSize=12;fontColor=#000000;align=center;" parent="1" vertex="1">
          <mxGeometry x="100" y="120" width="120" height="60" as="geometry" />
        </mxCell>
        <mxCell id="3cde6dad864a17aa-3" style="edgeStyle=orthogonalEdgeStyle;html=1;exitX=1;exitY=0.25;entryX=0.25;entryY=0;labelBackgroundColor=none;endArrow=open;endSize=8;strokeColor=#ff0000;fontFamily=Verdana;fontSize=12;align=left;" parent="1" edge="1">
          <mxGeometry relative="1" as="geometry">
            <mxPoint x="560" y="215" as="sourcePoint" />
          </mxGeometry>
        </mxCell>
        <mxCell id="3cde6dad864a17aa-13" style="edgeStyle=elbowEdgeStyle;html=1;exitX=0;exitY=0.75;entryX=1;entryY=0.75;labelBackgroundColor=none;endArrow=open;endSize=8;strokeColor=#ff0000;fontFamily=Verdana;fontSize=12;align=left;" parent="1" edge="1">
          <mxGeometry relative="1" as="geometry">
            <mxPoint x="640" y="355" as="targetPoint" />
          </mxGeometry>
        </mxCell>
        <mxCell id="V_hkI2GQ4vbb77GgvJAb-15" style="edgeStyle=orthogonalEdgeStyle;rounded=0;orthogonalLoop=1;jettySize=auto;html=1;exitX=0;exitY=0.5;exitDx=0;exitDy=0;" parent="1" source="2a3bc250acf0617d-7" target="382b91b5511bd0f7-6" edge="1">
          <mxGeometry relative="1" as="geometry">
            <Array as="points">
              <mxPoint x="160" y="235" />
            </Array>
          </mxGeometry>
        </mxCell>
        <mxCell id="2a3bc250acf0617d-9" style="edgeStyle=orthogonalEdgeStyle;html=1;labelBackgroundColor=none;endArrow=open;endSize=8;strokeColor=#ff0000;fontFamily=Verdana;fontSize=12;align=left;" parent="1" source="382b91b5511bd0f7-1" target="382b91b5511bd0f7-6" edge="1">
          <mxGeometry relative="1" as="geometry" />
        </mxCell>
        <mxCell id="2a3bc250acf0617d-11" style="edgeStyle=orthogonalEdgeStyle;html=1;entryX=0.75;entryY=0;labelBackgroundColor=none;endArrow=open;endSize=8;strokeColor=#ff0000;fontFamily=Verdana;fontSize=12;align=left;exitX=0.5;exitY=1;" parent="1" edge="1">
          <mxGeometry relative="1" as="geometry">
            <mxPoint x="500" y="260" as="sourcePoint" />
            <Array as="points">
              <mxPoint x="500" y="290" />
              <mxPoint x="330" y="290" />
            </Array>
          </mxGeometry>
        </mxCell>
        <mxCell id="2a3bc250acf0617d-13" style="edgeStyle=orthogonalEdgeStyle;html=1;exitX=1;exitY=0.5;entryX=0;entryY=0.5;labelBackgroundColor=none;endArrow=open;endSize=8;strokeColor=#ff0000;fontFamily=Verdana;fontSize=12;align=left;" parent="1" edge="1">
          <mxGeometry relative="1" as="geometry">
            <mxPoint x="360" y="340" as="sourcePoint" />
          </mxGeometry>
        </mxCell>
        <mxCell id="2a3bc250acf0617d-14" style="edgeStyle=orthogonalEdgeStyle;html=1;exitX=0.5;exitY=0;entryX=1;entryY=0.75;labelBackgroundColor=none;endArrow=open;endSize=8;strokeColor=#ff0000;fontFamily=Verdana;fontSize=12;align=left;" parent="1" edge="1">
          <mxGeometry relative="1" as="geometry">
            <mxPoint x="560" y="245" as="targetPoint" />
          </mxGeometry>
        </mxCell>
        <mxCell id="2a3bc250acf0617d-15" style="edgeStyle=orthogonalEdgeStyle;html=1;exitX=1;exitY=0.25;entryX=0;entryY=0.25;labelBackgroundColor=none;endArrow=open;endSize=8;strokeColor=#ff0000;fontFamily=Verdana;fontSize=12;align=left;" parent="1" edge="1">
          <mxGeometry relative="1" as="geometry">
            <mxPoint x="640" y="325" as="sourcePoint" />
          </mxGeometry>
        </mxCell>
        <mxCell id="V_hkI2GQ4vbb77GgvJAb-4" value="Odabir treninga" style="text;html=1;align=center;verticalAlign=middle;whiteSpace=wrap;rounded=0;" parent="1" vertex="1">
          <mxGeometry x="230" y="110" width="60" height="30" as="geometry" />
        </mxCell>
        <mxCell id="V_hkI2GQ4vbb77GgvJAb-16" value="Odabir novog treninga" style="text;html=1;align=center;verticalAlign=middle;whiteSpace=wrap;rounded=0;" parent="1" vertex="1">
          <mxGeometry x="170" y="240" width="110" height="30" as="geometry" />
        </mxCell>
        <mxCell id="V_hkI2GQ4vbb77GgvJAb-17" value="" style="ellipse;html=1;shape=endState;fillColor=strokeColor;" parent="1" vertex="1">
          <mxGeometry x="830" y="135" width="30" height="30" as="geometry" />
        </mxCell>
        <mxCell id="V_hkI2GQ4vbb77GgvJAb-18" style="edgeStyle=orthogonalEdgeStyle;rounded=0;orthogonalLoop=1;jettySize=auto;html=1;entryX=0.222;entryY=0.511;entryDx=0;entryDy=0;entryPerimeter=0;" parent="1" source="2a3bc250acf0617d-7" target="V_hkI2GQ4vbb77GgvJAb-17" edge="1">
          <mxGeometry relative="1" as="geometry">
            <Array as="points">
              <mxPoint x="750" y="150" />
              <mxPoint x="750" y="150" />
            </Array>
          </mxGeometry>
        </mxCell>
        <mxCell id="V_hkI2GQ4vbb77GgvJAb-19" value="Završetak" style="text;html=1;align=center;verticalAlign=middle;whiteSpace=wrap;rounded=0;" parent="1" vertex="1">
          <mxGeometry x="760" y="120" width="60" height="30" as="geometry" />
        </mxCell>
        <mxCell id="d1TRP7UcQInOwhF4ZrHE-6" style="edgeStyle=orthogonalEdgeStyle;rounded=0;orthogonalLoop=1;jettySize=auto;html=1;entryX=0;entryY=0.5;entryDx=0;entryDy=0;" edge="1" parent="1" source="d1TRP7UcQInOwhF4ZrHE-1" target="d1TRP7UcQInOwhF4ZrHE-5">
          <mxGeometry relative="1" as="geometry" />
        </mxCell>
        <mxCell id="d1TRP7UcQInOwhF4ZrHE-1" value="Gotov plan treninga" style="rounded=1;whiteSpace=wrap;html=1;arcSize=24;fillColor=#ffffc0;strokeColor=#ff0000;shadow=0;comic=0;labelBackgroundColor=none;fontFamily=Verdana;fontSize=12;fontColor=#000000;align=center;" vertex="1" parent="1">
          <mxGeometry x="90" y="490" width="120" height="60" as="geometry" />
        </mxCell>
        <mxCell id="d1TRP7UcQInOwhF4ZrHE-2" value="Korisnik bira trening" style="text;html=1;align=center;verticalAlign=middle;whiteSpace=wrap;rounded=0;" vertex="1" parent="1">
          <mxGeometry x="20" y="120" width="80" height="30" as="geometry" />
        </mxCell>
        <mxCell id="d1TRP7UcQInOwhF4ZrHE-4" value="Trener slaže plan trening" style="text;html=1;align=center;verticalAlign=middle;whiteSpace=wrap;rounded=0;" vertex="1" parent="1">
          <mxGeometry y="490" width="80" height="30" as="geometry" />
        </mxCell>
        <mxCell id="d1TRP7UcQInOwhF4ZrHE-56" style="edgeStyle=orthogonalEdgeStyle;rounded=0;orthogonalLoop=1;jettySize=auto;html=1;exitX=1;exitY=0.25;exitDx=0;exitDy=0;" edge="1" parent="1" source="d1TRP7UcQInOwhF4ZrHE-5">
          <mxGeometry relative="1" as="geometry">
            <mxPoint x="310" y="500.0689655172414" as="targetPoint" />
          </mxGeometry>
        </mxCell>
        <mxCell id="d1TRP7UcQInOwhF4ZrHE-57" style="edgeStyle=orthogonalEdgeStyle;rounded=0;orthogonalLoop=1;jettySize=auto;html=1;exitX=1;exitY=0.75;exitDx=0;exitDy=0;" edge="1" parent="1" source="d1TRP7UcQInOwhF4ZrHE-5">
          <mxGeometry relative="1" as="geometry">
            <mxPoint x="310" y="540.0689655172414" as="targetPoint" />
          </mxGeometry>
        </mxCell>
        <mxCell id="d1TRP7UcQInOwhF4ZrHE-5" value="" style="rounded=0;whiteSpace=wrap;html=1;fontSize=13;fillColor=#000000;" vertex="1" parent="1">
          <mxGeometry x="255" y="480" width="10" height="80" as="geometry" />
        </mxCell>
        <mxCell id="d1TRP7UcQInOwhF4ZrHE-16" value="" style="group" vertex="1" connectable="0" parent="1">
          <mxGeometry x="300" y="60" width="430" height="270" as="geometry" />
        </mxCell>
        <mxCell id="2a3bc250acf0617d-7" value="Trening - samo korisnik" style="swimlane;whiteSpace=wrap;html=1;rounded=1;shadow=0;comic=0;labelBackgroundColor=none;strokeWidth=1;fontFamily=Verdana;fontSize=12;align=center;" parent="d1TRP7UcQInOwhF4ZrHE-16" vertex="1">
          <mxGeometry width="430" height="270" as="geometry" />
        </mxCell>
        <mxCell id="3cde6dad864a17aa-10" style="edgeStyle=elbowEdgeStyle;html=1;labelBackgroundColor=none;endArrow=open;endSize=8;strokeColor=#ff0000;fontFamily=Verdana;fontSize=12;align=left;" parent="2a3bc250acf0617d-7" edge="1">
          <mxGeometry relative="1" as="geometry">
            <mxPoint x="400" y="95" as="targetPoint" />
          </mxGeometry>
        </mxCell>
        <mxCell id="V_hkI2GQ4vbb77GgvJAb-6" style="edgeStyle=orthogonalEdgeStyle;rounded=0;orthogonalLoop=1;jettySize=auto;html=1;entryX=0;entryY=0.5;entryDx=0;entryDy=0;" parent="2a3bc250acf0617d-7" source="2a3bc250acf0617d-3" target="V_hkI2GQ4vbb77GgvJAb-5" edge="1">
          <mxGeometry relative="1" as="geometry" />
        </mxCell>
        <mxCell id="2a3bc250acf0617d-3" value="" style="ellipse;html=1;shape=startState;fillColor=#000000;strokeColor=#ff0000;rounded=1;shadow=0;comic=0;labelBackgroundColor=none;fontFamily=Verdana;fontSize=12;fontColor=#000000;align=center;direction=south;" parent="2a3bc250acf0617d-7" vertex="1">
          <mxGeometry x="40" y="80" width="30" height="30" as="geometry" />
        </mxCell>
        <mxCell id="3cde6dad864a17aa-11" style="edgeStyle=elbowEdgeStyle;html=1;labelBackgroundColor=none;endArrow=open;endSize=8;strokeColor=#ff0000;fontFamily=Verdana;fontSize=12;align=left;" parent="2a3bc250acf0617d-7" edge="1">
          <mxGeometry relative="1" as="geometry">
            <mxPoint x="585" y="95" as="targetPoint" />
          </mxGeometry>
        </mxCell>
        <mxCell id="V_hkI2GQ4vbb77GgvJAb-5" value="Forma za unos podataka o seriji" style="rounded=1;whiteSpace=wrap;html=1;arcSize=24;fillColor=#ffffc0;strokeColor=#ff0000;shadow=0;comic=0;labelBackgroundColor=none;fontFamily=Verdana;fontSize=12;fontColor=#000000;align=center;" parent="2a3bc250acf0617d-7" vertex="1">
          <mxGeometry x="180" y="65" width="120" height="60" as="geometry" />
        </mxCell>
        <mxCell id="V_hkI2GQ4vbb77GgvJAb-7" value="Korisnik započinje seriju" style="text;html=1;align=center;verticalAlign=middle;whiteSpace=wrap;rounded=0;" parent="2a3bc250acf0617d-7" vertex="1">
          <mxGeometry x="80" y="60" width="90" height="30" as="geometry" />
        </mxCell>
        <mxCell id="V_hkI2GQ4vbb77GgvJAb-8" style="edgeStyle=orthogonalEdgeStyle;rounded=0;orthogonalLoop=1;jettySize=auto;html=1;" parent="2a3bc250acf0617d-7" source="V_hkI2GQ4vbb77GgvJAb-5" target="V_hkI2GQ4vbb77GgvJAb-5" edge="1">
          <mxGeometry relative="1" as="geometry" />
        </mxCell>
        <mxCell id="V_hkI2GQ4vbb77GgvJAb-9" value="Korisnik odrađuje seriju" style="text;html=1;align=center;verticalAlign=middle;whiteSpace=wrap;rounded=0;" parent="2a3bc250acf0617d-7" vertex="1">
          <mxGeometry x="320" y="80" width="90" height="30" as="geometry" />
        </mxCell>
        <mxCell id="V_hkI2GQ4vbb77GgvJAb-11" value="Pohrana unesenih podataka" style="rounded=1;whiteSpace=wrap;html=1;arcSize=24;fillColor=#ffffc0;strokeColor=#ff0000;shadow=0;comic=0;labelBackgroundColor=none;fontFamily=Verdana;fontSize=12;fontColor=#000000;align=center;" parent="d1TRP7UcQInOwhF4ZrHE-16" vertex="1">
          <mxGeometry x="180" y="190" width="120" height="60" as="geometry" />
        </mxCell>
        <mxCell id="V_hkI2GQ4vbb77GgvJAb-12" style="edgeStyle=orthogonalEdgeStyle;rounded=0;orthogonalLoop=1;jettySize=auto;html=1;" parent="d1TRP7UcQInOwhF4ZrHE-16" source="V_hkI2GQ4vbb77GgvJAb-5" target="V_hkI2GQ4vbb77GgvJAb-11" edge="1">
          <mxGeometry relative="1" as="geometry" />
        </mxCell>
        <mxCell id="V_hkI2GQ4vbb77GgvJAb-13" value="Kraj treninga" style="text;html=1;align=center;verticalAlign=middle;whiteSpace=wrap;rounded=0;" parent="d1TRP7UcQInOwhF4ZrHE-16" vertex="1">
          <mxGeometry x="240" y="140" width="60" height="30" as="geometry" />
        </mxCell>
        <mxCell id="d1TRP7UcQInOwhF4ZrHE-17" value="" style="group" vertex="1" connectable="0" parent="1">
          <mxGeometry x="310" y="370" width="670" height="320" as="geometry" />
        </mxCell>
        <mxCell id="d1TRP7UcQInOwhF4ZrHE-18" value="Trening - trener i korisnik" style="swimlane;whiteSpace=wrap;html=1;rounded=1;shadow=0;comic=0;labelBackgroundColor=none;strokeWidth=1;fontFamily=Verdana;fontSize=12;align=center;" vertex="1" parent="d1TRP7UcQInOwhF4ZrHE-17">
          <mxGeometry width="520" height="320" as="geometry" />
        </mxCell>
        <mxCell id="d1TRP7UcQInOwhF4ZrHE-19" style="edgeStyle=elbowEdgeStyle;html=1;labelBackgroundColor=none;endArrow=open;endSize=8;strokeColor=#ff0000;fontFamily=Verdana;fontSize=12;align=left;" edge="1" parent="d1TRP7UcQInOwhF4ZrHE-18">
          <mxGeometry relative="1" as="geometry">
            <mxPoint x="400" y="95" as="targetPoint" />
          </mxGeometry>
        </mxCell>
        <mxCell id="d1TRP7UcQInOwhF4ZrHE-20" style="edgeStyle=orthogonalEdgeStyle;rounded=0;orthogonalLoop=1;jettySize=auto;html=1;entryX=0;entryY=0.5;entryDx=0;entryDy=0;" edge="1" parent="d1TRP7UcQInOwhF4ZrHE-18" source="d1TRP7UcQInOwhF4ZrHE-21" target="d1TRP7UcQInOwhF4ZrHE-23">
          <mxGeometry relative="1" as="geometry" />
        </mxCell>
        <mxCell id="d1TRP7UcQInOwhF4ZrHE-21" value="" style="ellipse;html=1;shape=startState;fillColor=#000000;strokeColor=#ff0000;rounded=1;shadow=0;comic=0;labelBackgroundColor=none;fontFamily=Verdana;fontSize=12;fontColor=#000000;align=center;direction=south;" vertex="1" parent="d1TRP7UcQInOwhF4ZrHE-18">
          <mxGeometry x="40" y="95" width="30" height="30" as="geometry" />
        </mxCell>
        <mxCell id="d1TRP7UcQInOwhF4ZrHE-22" style="edgeStyle=elbowEdgeStyle;html=1;labelBackgroundColor=none;endArrow=open;endSize=8;strokeColor=#ff0000;fontFamily=Verdana;fontSize=12;align=left;" edge="1" parent="d1TRP7UcQInOwhF4ZrHE-18">
          <mxGeometry relative="1" as="geometry">
            <mxPoint x="585" y="95" as="targetPoint" />
          </mxGeometry>
        </mxCell>
        <mxCell id="d1TRP7UcQInOwhF4ZrHE-23" value="Recenzija za odrađeni trening" style="rounded=1;whiteSpace=wrap;html=1;arcSize=24;fillColor=#ffffc0;strokeColor=#ff0000;shadow=0;comic=0;labelBackgroundColor=none;fontFamily=Verdana;fontSize=12;fontColor=#000000;align=center;" vertex="1" parent="d1TRP7UcQInOwhF4ZrHE-18">
          <mxGeometry x="180" y="80" width="120" height="60" as="geometry" />
        </mxCell>
        <mxCell id="d1TRP7UcQInOwhF4ZrHE-24" value="Trener čeka dok korisnik ne odradi trening" style="text;html=1;align=center;verticalAlign=middle;whiteSpace=wrap;rounded=0;" vertex="1" parent="d1TRP7UcQInOwhF4ZrHE-18">
          <mxGeometry x="45" y="78" width="140" height="30" as="geometry" />
        </mxCell>
        <mxCell id="d1TRP7UcQInOwhF4ZrHE-25" style="edgeStyle=orthogonalEdgeStyle;rounded=0;orthogonalLoop=1;jettySize=auto;html=1;exitX=0.25;exitY=0;exitDx=0;exitDy=0;" edge="1" parent="d1TRP7UcQInOwhF4ZrHE-18" source="d1TRP7UcQInOwhF4ZrHE-23" target="d1TRP7UcQInOwhF4ZrHE-23">
          <mxGeometry relative="1" as="geometry">
            <Array as="points">
              <mxPoint x="210" y="60" />
              <mxPoint x="260" y="60" />
            </Array>
          </mxGeometry>
        </mxCell>
        <mxCell id="d1TRP7UcQInOwhF4ZrHE-26" value="Trener čeka dok korisnik ne odradi novi trening" style="text;html=1;align=center;verticalAlign=middle;whiteSpace=wrap;rounded=0;" vertex="1" parent="d1TRP7UcQInOwhF4ZrHE-18">
          <mxGeometry x="170" y="25" width="150" height="30" as="geometry" />
        </mxCell>
        <mxCell id="d1TRP7UcQInOwhF4ZrHE-51" value="Kraj treninga" style="text;html=1;align=center;verticalAlign=middle;whiteSpace=wrap;rounded=0;" vertex="1" parent="d1TRP7UcQInOwhF4ZrHE-18">
          <mxGeometry x="305" y="220" width="60" height="30" as="geometry" />
        </mxCell>
        <mxCell id="d1TRP7UcQInOwhF4ZrHE-53" value="Korisnik odrađuje seriju" style="text;html=1;align=center;verticalAlign=middle;whiteSpace=wrap;rounded=0;" vertex="1" parent="d1TRP7UcQInOwhF4ZrHE-18">
          <mxGeometry x="195" y="170" width="90" height="30" as="geometry" />
        </mxCell>
        <mxCell id="d1TRP7UcQInOwhF4ZrHE-54" value="" style="endArrow=none;dashed=1;html=1;dashPattern=1 3;strokeWidth=2;rounded=0;exitX=0;exitY=0.5;exitDx=0;exitDy=0;entryX=1;entryY=0.5;entryDx=0;entryDy=0;" edge="1" parent="d1TRP7UcQInOwhF4ZrHE-17" source="d1TRP7UcQInOwhF4ZrHE-18" target="d1TRP7UcQInOwhF4ZrHE-18">
          <mxGeometry width="50" height="50" relative="1" as="geometry">
            <mxPoint x="250" y="180" as="sourcePoint" />
            <mxPoint x="300" y="130" as="targetPoint" />
          </mxGeometry>
        </mxCell>
        <mxCell id="d1TRP7UcQInOwhF4ZrHE-48" style="edgeStyle=orthogonalEdgeStyle;rounded=0;orthogonalLoop=1;jettySize=auto;html=1;" edge="1" parent="1" source="d1TRP7UcQInOwhF4ZrHE-45" target="d1TRP7UcQInOwhF4ZrHE-47">
          <mxGeometry relative="1" as="geometry" />
        </mxCell>
        <mxCell id="d1TRP7UcQInOwhF4ZrHE-45" value="" style="ellipse;html=1;shape=startState;fillColor=#000000;strokeColor=#ff0000;rounded=1;shadow=0;comic=0;labelBackgroundColor=none;fontFamily=Verdana;fontSize=12;fontColor=#000000;align=center;direction=south;" vertex="1" parent="1">
          <mxGeometry x="350" y="605" width="30" height="30" as="geometry" />
        </mxCell>
        <mxCell id="d1TRP7UcQInOwhF4ZrHE-46" value="Korisnik bira trening" style="text;html=1;align=center;verticalAlign=middle;whiteSpace=wrap;rounded=0;" vertex="1" parent="1">
          <mxGeometry x="380" y="590" width="100" height="30" as="geometry" />
        </mxCell>
        <mxCell id="d1TRP7UcQInOwhF4ZrHE-50" style="edgeStyle=orthogonalEdgeStyle;rounded=0;orthogonalLoop=1;jettySize=auto;html=1;" edge="1" parent="1" source="d1TRP7UcQInOwhF4ZrHE-47" target="d1TRP7UcQInOwhF4ZrHE-49">
          <mxGeometry relative="1" as="geometry" />
        </mxCell>
        <mxCell id="d1TRP7UcQInOwhF4ZrHE-47" value="Forma za unos podataka o seriji" style="rounded=1;whiteSpace=wrap;html=1;arcSize=24;fillColor=#ffffc0;strokeColor=#ff0000;shadow=0;comic=0;labelBackgroundColor=none;fontFamily=Verdana;fontSize=12;fontColor=#000000;align=center;" vertex="1" parent="1">
          <mxGeometry x="490" y="590" width="120" height="60" as="geometry" />
        </mxCell>
        <mxCell id="d1TRP7UcQInOwhF4ZrHE-49" value="Pohrana unesenih podataka" style="rounded=1;whiteSpace=wrap;html=1;arcSize=24;fillColor=#ffffc0;strokeColor=#ff0000;shadow=0;comic=0;labelBackgroundColor=none;fontFamily=Verdana;fontSize=12;fontColor=#000000;align=center;" vertex="1" parent="1">
          <mxGeometry x="680" y="590" width="120" height="60" as="geometry" />
        </mxCell>
        <mxCell id="d1TRP7UcQInOwhF4ZrHE-52" style="edgeStyle=orthogonalEdgeStyle;rounded=0;orthogonalLoop=1;jettySize=auto;html=1;exitX=0.25;exitY=0;exitDx=0;exitDy=0;" edge="1" parent="1">
          <mxGeometry relative="1" as="geometry">
            <mxPoint x="520" y="590" as="sourcePoint" />
            <mxPoint x="570" y="590" as="targetPoint" />
            <Array as="points">
              <mxPoint x="520" y="570" />
              <mxPoint x="570" y="570" />
            </Array>
          </mxGeometry>
        </mxCell>
        <mxCell id="d1TRP7UcQInOwhF4ZrHE-60" style="edgeStyle=orthogonalEdgeStyle;rounded=0;orthogonalLoop=1;jettySize=auto;html=1;entryX=1;entryY=0.5;entryDx=0;entryDy=0;" edge="1" parent="1" source="d1TRP7UcQInOwhF4ZrHE-55" target="V_hkI2GQ4vbb77GgvJAb-17">
          <mxGeometry relative="1" as="geometry">
            <Array as="points">
              <mxPoint x="930" y="510" />
              <mxPoint x="930" y="150" />
            </Array>
          </mxGeometry>
        </mxCell>
        <mxCell id="d1TRP7UcQInOwhF4ZrHE-64" style="edgeStyle=orthogonalEdgeStyle;rounded=0;orthogonalLoop=1;jettySize=auto;html=1;entryX=0.5;entryY=1;entryDx=0;entryDy=0;" edge="1" parent="1" source="d1TRP7UcQInOwhF4ZrHE-55" target="d1TRP7UcQInOwhF4ZrHE-1">
          <mxGeometry relative="1" as="geometry">
            <Array as="points">
              <mxPoint x="930" y="530" />
              <mxPoint x="930" y="730" />
              <mxPoint x="150" y="730" />
            </Array>
          </mxGeometry>
        </mxCell>
        <mxCell id="d1TRP7UcQInOwhF4ZrHE-55" value="" style="rounded=0;whiteSpace=wrap;html=1;fontSize=13;fillColor=#000000;" vertex="1" parent="1">
          <mxGeometry x="890" y="490" width="10" height="80" as="geometry" />
        </mxCell>
        <mxCell id="d1TRP7UcQInOwhF4ZrHE-58" style="edgeStyle=orthogonalEdgeStyle;rounded=0;orthogonalLoop=1;jettySize=auto;html=1;" edge="1" parent="1" target="d1TRP7UcQInOwhF4ZrHE-55">
          <mxGeometry relative="1" as="geometry">
            <mxPoint x="830" y="500" as="sourcePoint" />
            <mxPoint x="870" y="500" as="targetPoint" />
            <Array as="points">
              <mxPoint x="830" y="510" />
            </Array>
          </mxGeometry>
        </mxCell>
        <mxCell id="d1TRP7UcQInOwhF4ZrHE-59" style="edgeStyle=orthogonalEdgeStyle;rounded=0;orthogonalLoop=1;jettySize=auto;html=1;" edge="1" parent="1" source="d1TRP7UcQInOwhF4ZrHE-18" target="d1TRP7UcQInOwhF4ZrHE-55">
          <mxGeometry relative="1" as="geometry">
            <Array as="points">
              <mxPoint x="860" y="550" />
              <mxPoint x="860" y="550" />
            </Array>
          </mxGeometry>
        </mxCell>
        <mxCell id="d1TRP7UcQInOwhF4ZrHE-61" value="Završetak" style="text;html=1;align=center;verticalAlign=middle;whiteSpace=wrap;rounded=0;" vertex="1" parent="1">
          <mxGeometry x="930" y="290" width="60" height="30" as="geometry" />
        </mxCell>
        <mxCell id="d1TRP7UcQInOwhF4ZrHE-62" value="Trener" style="text;html=1;align=center;verticalAlign=middle;whiteSpace=wrap;rounded=0;" vertex="1" parent="1">
          <mxGeometry x="310" y="395" width="60" height="30" as="geometry" />
        </mxCell>
        <mxCell id="d1TRP7UcQInOwhF4ZrHE-63" value="Korisnik" style="text;html=1;align=center;verticalAlign=middle;whiteSpace=wrap;rounded=0;" vertex="1" parent="1">
          <mxGeometry x="310" y="530" width="60" height="30" as="geometry" />
        </mxCell>
        <mxCell id="d1TRP7UcQInOwhF4ZrHE-65" value="Odabir novog plana treninga" style="text;html=1;align=center;verticalAlign=middle;whiteSpace=wrap;rounded=0;" vertex="1" parent="1">
          <mxGeometry x="490" y="730" width="110" height="30" as="geometry" />
        </mxCell>
      </root>
    </mxGraphModel>
  </diagram>
</mxfile>
